<svg width="137" height="45" viewBox="0 0 137 45" fill="none" xmlns="http://www.w3.org/2000/svg">
<path d="M44.6694 0H0V44.441H44.6694V0Z" fill="#E32726"/>
<path d="M41.1066 14.5013L40.5814 15.1179L39.9419 14.6155C39.9419 14.6155 38.5717 13.5421 37.1101 13.8618C36.6306 13.976 36.1738 14.2272 35.7627 14.6155L40.4444 17.767L39.508 19.1372L34.7122 15.8943C34.6894 15.9172 34.6666 15.9629 34.6666 15.9857C35.58 16.8764 37.7039 18.9317 39.1198 19.868L38.2063 21.2382C37.544 20.8043 36.7447 20.1421 35.9911 19.4798C35.032 20.1877 33.8673 20.4846 33.7074 20.5075L33.1365 20.6216L32.8168 20.1421C30.6929 16.7622 31.8804 11.6466 31.9261 11.4411L33.5247 11.8293C33.5247 11.8522 33.1822 13.2681 33.1822 15.0037C33.1822 15.0722 33.1822 15.1407 33.1822 15.2092C34.1413 13.565 35.3288 12.5601 36.7447 12.2632C38.1835 11.9664 39.4624 12.4459 40.216 12.857C40.8783 11.8522 41.1751 10.8474 41.1751 9.93387C41.1751 7.07923 38.7544 4.86402 38.4575 4.58998C36.7219 3.44812 34.9863 3.05989 33.3192 3.42528C30.8528 3.97337 29.1171 6.05155 28.5005 6.89653C30.7157 10.619 31.241 13.8162 31.2638 13.976L29.6424 14.2272C29.6424 14.2044 29.0943 10.9159 26.8334 7.30759L26.5594 6.87369L26.8106 6.43978C26.9019 6.27992 29.14 2.67166 32.9309 1.82669C35.0548 1.34711 37.2243 1.82668 39.3938 3.24259L39.4852 3.28826C41.7004 5.18374 44.8748 9.9567 41.1066 14.5013Z" fill="white"/>
<path d="M31.1725 30.1676L31.7206 28.3406C32.2915 28.7745 34.4611 30.3503 34.9178 31.0583L34.1185 32.7254C33.913 32.4056 32.2459 30.9897 31.1725 30.1676Z" fill="white"/>
<path d="M31.7205 39.6221L31.6749 39.6678C31.0583 40.2159 29.3911 40.5128 24.9379 36.4249C20.576 32.4056 17.2875 28.2036 16.8079 26.0112C16.3055 23.8188 17.2875 20.1649 18.4522 17.8127L19.9366 18.5435C18.9774 20.5075 18.338 22.9967 18.338 24.6866C18.338 25.052 18.3608 25.3718 18.4293 25.6458C18.7947 27.2216 21.5352 31.0125 26.0798 35.2146C29.1171 38.0007 30.3731 38.2976 30.6929 38.3204C35.5343 33.2734 36.7904 29.1627 36.7904 26.2396C36.7904 23.2707 35.5115 21.5808 35.3973 21.4438L36.6762 20.4161C36.9274 20.713 42.7509 28.2721 31.7205 39.6221Z" fill="white"/>
<path d="M27.313 43.5502C23.522 37.407 13.8619 33.3876 13.7706 33.342L14.4328 31.8347C14.8667 32.0403 25.5545 36.9731 29.5967 43.5502" fill="white"/>
<path d="M21.6265 21.832C20.0736 19.7995 21.5808 18.3836 21.5808 18.3836C26.0797 18.1553 29.3683 22.6313 29.3683 22.6313C32.5655 26.3538 30.1904 30.2589 30.1904 30.2589C30.1904 30.2589 27.0617 29.0029 24.6867 28.0437C22.2888 27.0846 21.9462 26.3766 22.0832 24.641C22.2431 22.9054 21.6265 21.832 21.6265 21.832Z" fill="white"/>
<path d="M1.39286 7.14777L0.753418 5.61768C1.30151 5.38931 14.1131 0.159612 22.5172 5.34364C26.605 7.85572 28.9116 12.4003 29.3912 18.8175L27.7469 18.9317C27.3358 13.0626 25.2805 8.97474 21.6722 6.7367C13.9761 2.00942 1.50704 7.10209 1.39286 7.14777Z" fill="white"/>
<path d="M12.7658 18.338C11.2586 22.3345 9.63714 25.0521 7.97003 27.7012L6.57696 26.8106C8.1984 24.23 9.77416 21.6037 11.2357 17.7442C11.5098 16.9906 11.761 15.9629 11.3499 15.255C10.9617 14.6155 9.91118 14.3872 9.88834 14.3872L10.916 12.9713C10.9845 12.9713 11.9665 13.0626 12.7658 14.3872C13.3596 15.4377 13.3596 16.7622 12.7658 18.338Z" fill="white"/>
<path d="M8.81491 43.5958C7.30766 42.7052 5.22948 40.1474 4.9326 39.7592C1.46135 35.2146 4.36167 30.3046 6.09729 27.587L7.51319 28.5233C5.82324 31.1496 3.44818 35.1233 6.23431 38.7315C7.01077 39.6222 10.4592 42.9336 11.5325 43.5502" fill="white"/>
<path d="M1.66693 16.4653L0.79912 15.0723C1.02749 14.9352 1.66693 14.2273 2.14651 13.6335C4.88697 10.9387 7.60458 12.6972 8.47239 11.3726C9.36304 10.0024 8.7236 7.28479 8.38104 6.32563L9.91113 5.75471C10.071 6.18861 11.4869 10.0938 9.77411 12.3546C8.97481 13.4508 7.4904 13.7934 5.84612 13.6107C5.84612 13.6107 4.54441 13.5193 3.42539 14.6155C3.15134 15.0266 2.21502 16.1228 1.66693 16.4653Z" fill="white"/>
<path d="M33.3196 16.8311C33.4338 17.402 33.685 18.2241 33.9362 18.7494C34.1874 18.658 34.5071 18.521 34.7583 18.3611C34.2102 17.8359 33.6165 17.1279 33.3196 16.8311Z" fill="#E32726"/>
<path d="M55.0605 0.114258L58.1892 11.8982C58.92 14.7072 60.6556 22.0836 61.1124 24.7327H61.2494C60.9753 22.2663 60.6556 11.9667 60.6556 9.63734V0.114258H67.1642V44.4183H60.2445L57.3214 33.3651C56.5906 30.6932 54.992 23.5223 54.5353 20.9189H54.3982C54.6723 23.2483 54.9235 33.3651 54.9235 35.5575L54.992 44.4183H48.4149V0.114258" fill="white"/>
<path d="M77.418 6.34879V18.7265H82.5335V25.0524H77.418V44.4183H70.4984V0.114258H84.4062V6.34879" fill="white"/>
<path d="M100.575 44.4183H86.53V0.114258H93.4497V38.0239H100.575" fill="white"/>
<path d="M112.679 8.28995C112.679 6.96539 112.29 6.4173 111.468 6.4173H109.664V21.3985H111.468C112.267 21.3985 112.679 20.8732 112.679 19.5258V8.28995ZM112.153 27.1762H109.687V44.4183H102.767V0.114258H112.153C115.67 0.114258 119.278 2.1696 119.278 8.08441V19.2518C119.256 25.1209 115.67 27.1762 112.153 27.1762Z" fill="white"/>
<path d="M128.961 30.5105L127.888 18.2013L126.495 30.5105H128.961ZM125.764 36.8363L124.896 44.4183H118.708L124.622 0.114258H131.085L137 44.4183H130.217L129.555 36.8363H125.764Z" fill="white"/>
</svg>