<svg width="410" height="94" viewBox="0 0 410 94" fill="none" xmlns="http://www.w3.org/2000/svg">
<g filter="url(#filter0_d_906_135)">
<path d="M345.475 27.0047C345.475 23.3113 346.603 22.0377 348.485 22.0377C350.366 22.0377 351.871 22.8019 353.627 27.0047L364.288 51.5849V67.1226C364.288 70.816 362.783 71.8349 358.644 72.3443V73.3632H378.336V72.3443C374.071 71.8349 372.692 70.6887 372.692 67.1226V51.5849L382.976 27.8962C384.983 23.3113 386.99 22.2925 390 21.783V20.7642H375.576V21.783C380.468 22.2925 382.224 23.6934 380.844 27.0047L371.814 48.0189L362.532 26.4953C361.278 23.566 362.031 22.6745 367.424 21.9104V20.8915H336.444V21.9104C341.336 22.6745 342.841 23.566 342.841 27.1321V55.9151L320.139 20.8915H308.976V21.9104C312.614 22.4198 313.742 23.566 313.742 27.1321V67.25C313.742 70.9434 312.739 72.217 311.485 72.217C310.356 72.217 309.729 71.7075 308.098 67.25L291.292 20.6368H290.288L274.108 65.2123C272.353 70.1792 269.593 71.8349 266.834 72.4717V73.4906H281.634V72.4717C276.492 71.9623 274.861 69.9245 275.99 66.6132L279.627 56.4245H294.929L298.441 65.9764C299.946 70.3066 299.068 71.5802 294.678 72.3443V73.3632H322.773V72.3443C317.881 71.5802 316.376 70.6887 316.376 67.1226V31.2075L343.844 73.4906H345.475V27.0047ZM147.431 47C147.431 30.6981 155.081 22.1651 163.986 22.1651C169.254 22.1651 172.641 23.3113 174.647 25.4764C176.153 27.0047 177.281 29.1698 178.536 32.6085H179.539V21.6557C174.397 20.6368 169.756 20 165.115 20C151.695 20 137.773 28.7877 137.773 47C137.773 65.2123 151.695 74 164.237 74C169.756 74 174.647 73.1085 179.288 71.7075L180.793 61.3915L179.915 61.1368C178.786 63.3019 177.407 65.2123 175.902 66.8679C172.641 70.1792 168.251 71.9623 163.861 71.9623C155.332 71.8349 147.431 63.5566 147.431 47ZM258.681 48.5283C257.553 48.5283 256.047 48.4009 254.542 48.1462V22.6745H258.681C265.58 22.6745 268.59 26.3679 268.59 35.5377C268.59 44.8349 265.454 48.5283 258.681 48.5283ZM97.5119 20.7642V33.3726H98.5153C100.02 25.3491 103.156 22.8019 108.424 22.8019H110.932V67.1226C110.932 70.816 109.427 71.8349 105.288 72.3443V73.3632H124.98V72.3443C120.715 71.8349 119.336 70.6887 119.336 67.1226V22.6745H121.844C127.112 22.6745 130.247 25.2217 131.753 33.2453H132.756V20.6368H97.5119V20.7642ZM81.8339 74C90.3627 74 99.3932 69.033 99.3932 58.8443C99.3932 52.8585 96.2576 47.8915 90.739 44.8349L80.9559 39.3585C75.8136 36.4292 74.3085 33.7547 74.3085 29.934C74.3085 25.6038 77.4441 22.1651 83.339 22.1651C86.2237 22.1651 88.3559 22.9292 90.1119 24.5849C91.617 26.1132 93.122 28.6604 94.5017 33.2453H95.3797V21.6557C91.8678 20.6368 88.2305 20 83.9661 20C75.5627 20 69.2915 25.3491 69.2915 34.3915C69.2915 40.1226 72.4271 45.3443 77.5695 48.4009L86.6 53.4953C91.7424 56.4245 93.3729 59.2264 93.3729 63.4292C93.3729 68.3962 88.3559 71.9623 82.8373 71.9623C79.2 71.9623 76.1898 70.6887 74.0576 68.5236C72.678 67.1226 71.1729 64.9575 70.1695 62.1557H76.0644V61.1368C74.4339 60.7547 73.4305 60.5 72.0508 57.1887L60.5119 29.2972H59.5085L48.2203 56.5519C46.7153 60.2453 45.7119 60.8821 43.9559 61.1368V62.1557H53.9898V61.1368C50.3525 60.7547 49.3492 58.9717 50.2271 56.6792L51.9831 52.3491H62.1424L64.4 57.6981C65.4034 60.1179 63.8983 60.7547 60.261 61.0094V62.0283H68.2881V72.0896C72.3017 73.2358 77.4441 74 81.8339 74ZM209.264 73.4906L224.19 31.3349L225.319 67.25C225.444 70.816 224.064 71.8349 219.8 72.3443V73.3632H260.939V72.3443C256.047 71.5802 254.542 70.6887 254.542 67.1226V50.184C256.173 50.4387 257.803 50.566 259.058 50.566C268.966 50.566 277.495 46.8726 277.495 35.6651C277.495 24.4575 268.966 20.7642 259.058 20.7642H241.373V21.783C245.01 22.2925 246.139 23.4387 246.139 27.0047V67.1226C246.139 70.816 244.634 72.3443 240.495 72.3443H240.369C235.98 72.3443 234.098 70.6887 233.973 67.25L232.468 27.1321C232.342 23.4387 233.597 22.2925 237.485 21.783V20.7642H225.319L212.024 58.5896L198.729 20.7642H185.685V21.783C189.573 22.2925 190.827 23.566 190.702 27.1321L189.322 65.5943C189.197 69.4151 187.19 71.7075 183.553 72.3443V73.3632H197.349V72.3443C193.837 71.8349 191.831 69.5424 191.956 65.5943L193.085 30.5708L208.261 73.3632L209.264 73.4906ZM169.254 62.4104C175.902 62.4104 184.431 56.4245 184.431 47C184.431 37.7028 176.027 31.5896 169.254 31.5896C162.607 31.5896 154.078 37.5755 154.078 47C154.078 56.2972 162.481 62.4104 169.254 62.4104ZM169.254 33.7547C173.519 33.7547 176.403 37.3208 176.403 47C176.403 56.8066 173.393 60.2453 169.254 60.2453C164.99 60.2453 162.105 56.6792 162.105 47C162.105 37.1934 164.99 33.7547 169.254 33.7547ZM294.302 54.2594H280.38L287.278 34.9009L294.302 54.2594ZM61.5153 50.3113H52.9864L57.2508 39.7406L61.5153 50.3113ZM45.2102 52.9858H46.2136V37.1934H45.2102C43.5797 42.7972 41.9492 44.0708 38.939 44.0708H33.1695V22.6745H42.3254C47.5932 22.6745 50.7288 25.2217 52.2339 33.2453H53.2373V20.6368H20V21.6557C23.6373 22.1651 24.7661 23.3113 24.7661 26.8774V66.9953C24.7661 70.6887 23.6373 71.7075 20 72.217V73.2358H39.5661V72.217C34.6746 71.4528 33.1695 70.5613 33.1695 66.9953V45.9811H38.939C41.8237 46.1085 43.5797 47.3821 45.2102 52.9858Z" fill="white"/>
</g>
<defs>
<filter id="filter0_d_906_135" x="0" y="0" width="410" height="94" filterUnits="userSpaceOnUse" color-interpolation-filters="sRGB">
<feFlood flood-opacity="0" result="BackgroundImageFix"/>
<feColorMatrix in="SourceAlpha" type="matrix" values="0 0 0 0 0 0 0 0 0 0 0 0 0 0 0 0 0 0 127 0" result="hardAlpha"/>
<feOffset/>
<feGaussianBlur stdDeviation="10"/>
<feComposite in2="hardAlpha" operator="out"/>
<feColorMatrix type="matrix" values="0 0 0 0 0 0 0 0 0 0 0 0 0 0 0 0 0 0 1 0"/>
<feBlend mode="normal" in2="BackgroundImageFix" result="effect1_dropShadow_906_135"/>
<feBlend mode="normal" in="SourceGraphic" in2="effect1_dropShadow_906_135" result="shape"/>
</filter>
</defs>
</svg>